<svg id="Добавить_товар" data-name="Добавить товар" xmlns="http://www.w3.org/2000/svg" width="70" height="70" viewBox="0 0 70 70">
  <defs>
    <style>
      .cls-1 {
        fill-rule: evenodd;
      }
    </style>
  </defs>
  <path id="Фигура_338_1" data-name="Фигура 338 1" class="cls-1" d="M47.608,39.348V60.176H9.85V22.418H29.939A15.338,15.338,0,1,1,47.608,39.348ZM13.129,25.7V56.9h31.2V39.518a15.274,15.274,0,0,1-4.254-.845l-0.664,2.622H18.136L14.187,25.7H13.129ZM20.9,38.5H36.651l0.336-1.328A15.333,15.333,0,0,1,29.907,25.7H17.654Zm24.275-27.26A12.959,12.959,0,1,0,58.131,24.2,12.959,12.959,0,0,0,45.172,11.245Zm1.646,14.584v7.735H43.533V25.829H35.8V22.544h7.735V14.81h3.285v7.735h7.735v3.285H46.818ZM20.361,56.015H14.727v-2.27h5.634v2.27Zm22.453,0H21.371v-2.27H42.815v2.27ZM18.527,50.244H39.971v2.271H18.527V50.244Z"/>
</svg>
