<svg id="Товары" xmlns="http://www.w3.org/2000/svg" width="70" height="70" viewBox="0 0 70 70">
  <defs>
    <style>
      .cls-1 {
        fill-rule: evenodd;
      }
    </style>
  </defs>
  <path id="Фигура_333_1" data-name="Фигура 333 1" class="cls-1" d="M66.775,65.445H3.226V33.685H19.113V4.625H50.888v29.06H66.775V65.445Zm-60.789-29V62.686H32.241V36.444H31.426L28.1,49.563H10.2L6.876,36.444H5.986Zm6.536,10.772H25.78l2.729-10.772H9.794ZM25.681,7.384l2.729,10.772H41.667L44.4,7.384H25.681Zm22.447,0H47.313L43.99,20.5h-17.9L22.763,7.384h-0.89V33.626H48.128V7.384Zm-6.56,29.06L44.3,47.216H57.554l2.728-10.772H41.568Zm22.447,0H63.2L59.877,49.563h-17.9L38.651,36.444H37.76V62.686H64.015V36.444Zm-20.169,25.5H39.1v-1.91h4.742v1.91Zm18.9,0H44.7v-1.91H62.741v1.91ZM42.3,57.091H60.349V59H42.3v-1.91ZM27.959,32.884H23.218v-1.91h4.741v1.91Zm18.9,0H28.808v-1.91H46.854v1.91ZM26.416,28.03H44.461v1.91H26.416V28.03ZM12.072,61.945H7.331v-1.91h4.741v1.91Zm18.9,0H12.921v-1.91H30.967v1.91ZM10.528,57.091H28.574V59H10.528v-1.91Z"/>
</svg>
