<svg id="Профиль" xmlns="http://www.w3.org/2000/svg" width="70" height="70" viewBox="0 0 70 70">
  <defs>
    <style>
      .cls-1 {
        fill-rule: evenodd;
      }
    </style>
  </defs>
  <path id="Фигура_325_528" data-name="Фигура 325 528" class="cls-1" d="M48.6,49.318A82.867,82.867,0,0,1,35,50.681a82.868,82.868,0,0,1-13.6-1.362c-2.833-.633-1.957-7.542-1.957-7.542s0.667-2.869,3.884-7.588a42.34,42.34,0,0,1,4.041-4.834,9.154,9.154,0,1,1,15.269.074,42.163,42.163,0,0,1,3.97,4.76,27.321,27.321,0,0,1,3.942,7.588S51.429,48.686,48.6,49.318ZM35.031,18.028a6.313,6.313,0,1,0,6.316,6.313A6.314,6.314,0,0,0,35.031,18.028Zm8.451,18.292a16.4,16.4,0,0,0-3.9-4.036,9.167,9.167,0,0,1-9.166-.038,16.384,16.384,0,0,0-3.955,4.075A16.177,16.177,0,0,0,23.7,43.84a33.336,33.336,0,0,0,22.551.021A16.174,16.174,0,0,0,43.482,36.319Z"/>
</svg>
