<svg id="Настройки" xmlns="http://www.w3.org/2000/svg" width="70" height="70" viewBox="0 0 70 70">
  <defs>
    <style>
      .cls-1 {
        fill-rule: evenodd;
      }
    </style>
  </defs>
  <path id="Фигура_341_1" data-name="Фигура 341 1" class="cls-1" d="M59.534,34.913l-0.019,0-0.595,5.54L52.853,39.8a18.358,18.358,0,0,1-1.659,4.112L56.021,47.7l-3.5,4.465,0,0.005-0.024.02-0.023.029-0.007-.005-4.416,3.56L44.227,51.02a18.383,18.383,0,0,1-4.175,1.764l0.736,6.059-5.531.672,0,0.019-0.083-.009-0.083.01,0-.019-5.54-.595L30.2,52.854a18.367,18.367,0,0,1-4.161-1.687l-3.8,4.854-4.52-3.541,0.04-.051-3.525-4.372,4.752-3.831a18.385,18.385,0,0,1-1.764-4.176l-6.059.736-0.672-5.531-0.019,0,0.009-.083-0.01-.083,0.019,0,0.595-5.54L17.147,30.2A18.36,18.36,0,0,1,18.9,25.912l-4.785-3.749,3.374-4.306-0.02-.025,0.106-.086,0.081-.1,0.024,0.019,4.259-3.433,3.831,4.752a18.381,18.381,0,0,1,4.175-1.764l-0.736-6.059,5.531-.672,0-.019,0.083,0.009,0.083-.01,0,0.019,5.54,0.595L39.8,17.146a18.366,18.366,0,0,1,4.237,1.73l3.727-4.757,4.342,3.4,0.059-.048,3.6,4.47L51.02,25.773a18.385,18.385,0,0,1,1.764,4.176l6.059-.736,0.672,5.531,0.019,0-0.009.083ZM35,20.979A14.021,14.021,0,1,0,49.021,35,14.021,14.021,0,0,0,35,20.979Zm0,21.28A7.259,7.259,0,1,1,42.259,35,7.259,7.259,0,0,1,35,42.259Z"/>
</svg>
