<svg id="Пользователи" xmlns="http://www.w3.org/2000/svg" width="70" height="70" viewBox="0 0 70 70">
  <defs>
    <style>
      .cls-1 {
        fill-rule: evenodd;
      }
    </style>
  </defs>
  <path id="Фигура_329_522" data-name="Фигура 329 522" class="cls-1" d="M63.57,48.868a63.368,63.368,0,0,1-10.408,1.044c-0.46,0-.966-0.013-1.5-0.035-0.287,1.377-.87,2.546-1.995,2.8A89.394,89.394,0,0,1,35,54.144a89.394,89.394,0,0,1-14.667-1.47c-1.125-.251-1.708-1.421-2-2.8-0.535.023-1.041,0.035-1.5,0.035A63.366,63.366,0,0,1,6.429,48.867c-2.169-.485-1.5-5.78-1.5-5.78A19.736,19.736,0,0,1,7.9,37.272,32.445,32.445,0,0,1,11,33.568a7.008,7.008,0,1,1,11.688.057c0.313,0.327.643,0.686,0.972,1.058,0.963-1.208,2.106-2.5,3.113-3.545a9.876,9.876,0,1,1,16.472.08c0.991,1.033,2.1,2.3,3.045,3.476,0.351-.4.7-0.78,1.035-1.124a7.008,7.008,0,1,1,11.688.057,32.3,32.3,0,0,1,3.039,3.648,20.947,20.947,0,0,1,3.017,5.815S65.739,48.384,63.57,48.868ZM10.3,38.905a12.406,12.406,0,0,0-2.116,5.764c2.978,1.957,9.917,1.483,9.917,1.483l0.121-1.614a26.367,26.367,0,0,1,3.662-7.393,12.432,12.432,0,0,0-1.54-1.332,7.01,7.01,0,0,1-7.017-.03A12.552,12.552,0,0,0,10.3,38.905ZM16.86,24.888a4.838,4.838,0,1,0,4.835,4.838A4.836,4.836,0,0,0,16.86,24.888Zm18.173-5.97a6.811,6.811,0,1,0,6.814,6.811A6.812,6.812,0,0,0,35.033,18.918ZM39.942,34.3a9.889,9.889,0,0,1-9.889-.042,17.675,17.675,0,0,0-4.266,4.4,17.452,17.452,0,0,0-2.981,8.113A34.928,34.928,0,0,0,35,48.895a34.949,34.949,0,0,0,12.134-2.108,17.45,17.45,0,0,0-2.984-8.136A17.688,17.688,0,0,0,39.942,34.3Zm13.244-9.407a4.838,4.838,0,1,0,4.835,4.838A4.836,4.836,0,0,0,53.186,24.889Zm6.469,14.017a12.561,12.561,0,0,0-2.986-3.093,7.01,7.01,0,0,1-7.017-.029,12.413,12.413,0,0,0-1.592,1.371,28,28,0,0,1,3.717,7.383L51.9,46.152s3.885,0.754,9.873-1.467A12.4,12.4,0,0,0,59.655,38.907Z"/>
</svg>
