<svg id="Сменить2" xmlns="http://www.w3.org/2000/svg" width="70" height="70" viewBox="0 0 1000 1000">
  <defs>
    <style>
      .cls-1 {
        fill-rule: evenodd;
      }
    </style>
  </defs>
  <path id="Фигура_318_514" data-name="Фигура 318 514" class="cls-1" d="M499.462,233.421c-113.218,0-209.487,74.51-244.916,178.405l77.738-52.139L362.9,405.479l-115.849,77.7,0.043,0.064-45.854,30.748L93.007,352.119l45.854-30.748,54.383,81.339c41.567-128.027,162.932-220.7,306.218-220.7,156.35,0,286.618,110.334,315.569,256.549H751.986C724.981,320.952,622.176,233.421,499.462,233.421Zm0,533.158c115.861,0,213.962-78.033,247.287-185.73l-79.033,53.007-30.611-45.792,115.849-77.7-0.043-.064,45.854-30.748L906.993,641.424l-45.854,30.748-53.728-80.359C767.565,722.667,644.785,817.991,499.462,817.991c-158.647,0-290.45-113.6-316.787-263.016h62.862C270.2,675.825,374.51,766.579,499.462,766.579Z"/>
</svg>
