<svg id="Пользователи" xmlns="http://www.w3.org/2000/svg" width="70" height="70" viewBox="0 0 1000 1000">
  <defs>
    <style>
      .cls-1 {
        fill-rule: evenodd;
      }
    </style>
  </defs>
  <path id="Фигура_329_522" data-name="Фигура 329 522" class="cls-1" d="M908.138,698.12c-30.984,6.925-104.544,14.916-148.679,14.916-6.568,0-13.8-.181-21.433-0.5-4.1,19.67-12.425,36.372-28.5,39.961-43.666,9.749-147.332,21-209.532,21s-165.866-11.25-209.532-21c-16.079-3.59-24.4-20.3-28.5-39.979-7.638.324-14.871,0.5-21.442,0.5-44.136,0-117.695-7.991-148.68-14.916s-21.4-82.572-21.4-82.572,7.3-31.407,42.476-83.072c10.729-15.756,29-37.15,44.189-52.918a100.109,100.109,0,1,1,166.975.811c4.472,4.664,9.19,9.8,13.891,15.109,13.76-17.253,30.087-35.734,44.471-50.646a141.083,141.083,0,1,1,235.317,1.14c14.157,14.753,30.059,32.8,43.5,49.659,5.015-5.671,10.053-11.137,14.791-16.055a100.11,100.11,0,1,1,166.976.811c15.034,15.684,32.864,36.618,43.411,52.107,35.093,51.539,43.105,83.072,43.105,83.072S939.122,691.194,908.138,698.12Zm-761-142.331a177.233,177.233,0,0,0-30.224,82.335c42.547,27.953,141.667,21.19,141.667,21.19l1.73-23.061s9.244-39.661,52.314-105.62a177.544,177.544,0,0,0-22-19.032,100.15,100.15,0,0,1-100.238-.422A179.287,179.287,0,0,0,147.133,555.789ZM240.858,355.54a69.115,69.115,0,1,0,69.068,69.115A69.092,69.092,0,0,0,240.858,355.54Zm259.617-85.287a97.3,97.3,0,1,0,97.337,97.3A97.316,97.316,0,0,0,500.475,270.253ZM570.6,489.947a141.274,141.274,0,0,1-141.265-.594,252.507,252.507,0,0,0-60.949,62.8A249.328,249.328,0,0,0,325.8,668.059C366.924,683.389,426.171,698.5,500,698.5c73.312,0,132.251-14.9,173.343-30.119a249.271,249.271,0,0,0-42.624-116.226A252.707,252.707,0,0,0,570.6,489.947ZM759.8,355.558a69.115,69.115,0,1,0,69.068,69.115A69.091,69.091,0,0,0,759.8,355.558Zm92.414,200.249a179.41,179.41,0,0,0-42.654-44.188,100.15,100.15,0,0,1-100.238-.422,177.32,177.32,0,0,0-22.736,19.581c42.97,65.725,53.1,105.475,53.1,105.475l1.731,23.067s55.5,10.767,141.044-20.951A177.186,177.186,0,0,0,852.214,555.807Z"/>
</svg>
